<svg width="13" height="16" viewBox="0 0 13 16" fill="none" xmlns="http://www.w3.org/2000/svg">
<path d="M6.5 16C6.5 16 13 10.314 13 6C13 4.4087 12.3152 2.88258 11.0962 1.75736C9.87721 0.632141 8.22391 0 6.5 0C4.77609 0 3.12279 0.632141 1.90381 1.75736C0.684819 2.88258 2.56882e-08 4.4087 0 6C0 10.314 6.5 16 6.5 16ZM6.5 9C5.63805 9 4.8114 8.68393 4.2019 8.12132C3.59241 7.55871 3.25 6.79565 3.25 6C3.25 5.20435 3.59241 4.44129 4.2019 3.87868C4.8114 3.31607 5.63805 3 6.5 3C7.36195 3 8.1886 3.31607 8.7981 3.87868C9.40759 4.44129 9.75 5.20435 9.75 6C9.75 6.79565 9.40759 7.55871 8.7981 8.12132C8.1886 8.68393 7.36195 9 6.5 9Z" fill="#E1E1E1"/>
</svg>
