<svg width="50" height="50" viewBox="0 0 50 50" fill="none" xmlns="http://www.w3.org/2000/svg">
<rect width="50" height="50" rx="25" fill="#D9D9D9"/>
<path d="M36 13H34.5V10H31.5V13H19.5V10H16.5V13H15C13.335 13 12.015 14.35 12.015 16L12 37C12 37.7956 12.3161 38.5587 12.8787 39.1213C13.4413 39.6839 14.2044 40 15 40H36C37.65 40 39 38.65 39 37V16C39 14.35 37.65 13 36 13ZM36 37H15V22H36V37ZM36 19H15V16H36V19ZM21 28H18V25H21V28ZM27 28H24V25H27V28ZM33 28H30V25H33V28ZM21 34H18V31H21V34ZM27 34H24V31H27V34ZM33 34H30V31H33V34Z" fill="#1A1A1A"/>
</svg>
