<svg width="18" height="18" viewBox="0 0 18 18" fill="none" xmlns="http://www.w3.org/2000/svg">
<path d="M5.24854 -0.000976562C2.35429 -0.000976562 0 2.35549 0 5.25049V12.7505C0 15.6447 2.35646 17.999 5.25146 17.999H12.7515C15.6457 17.999 18 15.6426 18 12.7476V5.24756C18 2.35331 15.6435 -0.000976562 12.7485 -0.000976562H5.24854ZM14.25 2.99902C14.664 2.99902 15 3.33502 15 3.74902C15 4.16302 14.664 4.49902 14.25 4.49902C13.836 4.49902 13.5 4.16302 13.5 3.74902C13.5 3.33502 13.836 2.99902 14.25 2.99902ZM9 4.49902C11.4818 4.49902 13.5 6.51727 13.5 8.99902C13.5 11.4808 11.4818 13.499 9 13.499C6.51825 13.499 4.5 11.4808 4.5 8.99902C4.5 6.51727 6.51825 4.49902 9 4.49902ZM9 5.99902C8.20435 5.99902 7.44129 6.31509 6.87868 6.8777C6.31607 7.44031 6 8.20337 6 8.99902C6 9.79467 6.31607 10.5577 6.87868 11.1203C7.44129 11.683 8.20435 11.999 9 11.999C9.79565 11.999 10.5587 11.683 11.1213 11.1203C11.6839 10.5577 12 9.79467 12 8.99902C12 8.20337 11.6839 7.44031 11.1213 6.8777C10.5587 6.31509 9.79565 5.99902 9 5.99902Z" fill="#CCCCCC"/>
</svg>
