<svg width="50" height="50" viewBox="0 0 50 50" fill="none" xmlns="http://www.w3.org/2000/svg">
<rect width="50" height="50" rx="25" fill="#D9D9D9"/>
<path d="M19.5 33.3333C19.925 33.3333 20.2815 33.1733 20.5695 32.8533C20.8575 32.5333 21.001 32.1378 21 31.6667C21 31.1944 20.856 30.7983 20.568 30.4783C20.28 30.1583 19.924 29.9989 19.5 30C19.075 30 18.7185 30.16 18.4305 30.48C18.1425 30.8 17.999 31.1956 18 31.6667C18 32.1389 18.144 32.535 18.432 32.855C18.72 33.175 19.076 33.3344 19.5 33.3333ZM19.5 26.6667C19.925 26.6667 20.2815 26.5067 20.5695 26.1867C20.8575 25.8667 21.001 25.4711 21 25C21 24.5278 20.856 24.1317 20.568 23.8117C20.28 23.4917 19.924 23.3322 19.5 23.3333C19.075 23.3333 18.7185 23.4933 18.4305 23.8133C18.1425 24.1333 17.999 24.5289 18 25C18 25.4722 18.144 25.8683 18.432 26.1883C18.72 26.5083 19.076 26.6678 19.5 26.6667ZM19.5 20C19.925 20 20.2815 19.84 20.5695 19.52C20.8575 19.2 21.001 18.8044 21 18.3333C21 17.8611 20.856 17.465 20.568 17.145C20.28 16.825 19.924 16.6656 19.5 16.6667C19.075 16.6667 18.7185 16.8267 18.4305 17.1467C18.1425 17.4667 17.999 17.8622 18 18.3333C18 18.8056 18.144 19.2017 18.432 19.5217C18.72 19.8417 19.076 20.0011 19.5 20ZM24 33.3333H33V30H24V33.3333ZM24 26.6667H33V23.3333H24V26.6667ZM24 20H33V16.6667H24V20ZM15 40C14.175 40 13.4685 39.6733 12.8805 39.02C12.2925 38.3667 11.999 37.5822 12 36.6667V13.3333C12 12.4167 12.294 11.6317 12.882 10.9783C13.47 10.325 14.176 9.99889 15 10H36C36.825 10 37.5315 10.3267 38.1195 10.98C38.7075 11.6333 39.001 12.4178 39 13.3333V36.6667C39 37.5833 38.706 38.3683 38.118 39.0217C37.53 39.675 36.824 40.0011 36 40H15ZM15 36.6667H36V13.3333H15V36.6667Z" fill="#1A1A1A"/>
</svg>
