<svg width="50" height="50" viewBox="0 0 50 50" fill="none" xmlns="http://www.w3.org/2000/svg">
<rect width="50" height="50" rx="25" fill="#D9D9D9"/>
<path d="M36.7074 32.047C35.7688 31.1076 34.6721 30.3409 33.4674 29.782C35.1662 28.4058 36.2499 26.3058 36.2499 23.9508C36.2499 19.7958 32.785 16.3871 28.63 16.4508C24.5388 16.5146 21.2425 19.8483 21.2425 23.9508C21.2425 26.3058 22.33 28.4058 24.025 29.782C22.8202 30.3405 21.7233 31.1072 20.785 32.047C18.7375 34.0982 17.575 36.8057 17.5 39.6932C17.499 39.7332 17.5061 39.773 17.5207 39.8103C17.5353 39.8476 17.5573 39.8815 17.5852 39.9102C17.6132 39.9388 17.6466 39.9616 17.6835 39.9772C17.7204 39.9927 17.76 40.0007 17.8 40.0007H19.9C20.0613 40.0007 20.1963 39.8732 20.2 39.7119C20.2713 37.537 21.1525 35.5007 22.7013 33.9557C23.4938 33.159 24.4365 32.5274 25.4747 32.0974C26.513 31.6674 27.6262 31.4476 28.75 31.4507C31.0337 31.4507 33.1824 32.3395 34.7987 33.9557C36.3437 35.5007 37.2249 37.537 37.2999 39.7119C37.3037 39.8732 37.4387 40.0007 37.5999 40.0007H39.6999C39.7399 40.0007 39.7796 39.9927 39.8165 39.9772C39.8534 39.9616 39.8868 39.9388 39.9147 39.9102C39.9427 39.8815 39.9646 39.8476 39.9793 39.8103C39.9939 39.773 40.0009 39.7332 39.9999 39.6932C39.9249 36.8057 38.7624 34.0982 36.7074 32.047ZM28.75 28.7508C27.4675 28.7508 26.26 28.252 25.3562 27.3445C24.9027 26.8945 24.5444 26.3578 24.3028 25.7664C24.0612 25.1749 23.9412 24.5409 23.95 23.902C23.9613 22.6721 24.4525 21.4833 25.3112 20.6021C26.2112 19.6796 27.415 19.1658 28.7012 19.1508C29.9725 19.1396 31.2062 19.6346 32.1137 20.5233C33.0437 21.4346 33.5537 22.6533 33.5537 23.9508C33.5537 25.2333 33.0549 26.437 32.1475 27.3445C31.7022 27.7919 31.1727 28.1465 30.5895 28.3879C30.0064 28.6293 29.3811 28.7526 28.75 28.7508ZM19.3563 24.9408C19.3225 24.6145 19.3038 24.2845 19.3038 23.9508C19.3038 23.3545 19.36 22.7733 19.465 22.2071C19.4913 22.0721 19.42 21.9333 19.2963 21.8771C18.7863 21.6483 18.3175 21.3333 17.9125 20.9358C17.4353 20.4731 17.0598 19.916 16.8099 19.3C16.56 18.684 16.4413 18.0228 16.4613 17.3583C16.4951 16.1546 16.9788 15.0108 17.8225 14.1484C18.7488 13.1996 19.9938 12.6821 21.3175 12.6971C22.5138 12.7084 23.6688 13.1696 24.5425 13.9871C24.8388 14.2646 25.0938 14.5721 25.3075 14.9021C25.3825 15.0183 25.5287 15.0671 25.6562 15.0221C26.3162 14.7933 27.0137 14.6321 27.73 14.5571C27.94 14.5346 28.06 14.3096 27.9662 14.1221C26.7475 11.7109 24.2575 10.0459 21.3775 10.0009C17.2188 9.93713 13.7538 13.3459 13.7538 17.4971C13.7538 19.8521 14.8376 21.9521 16.5363 23.3283C15.3438 23.8795 14.2451 24.6408 13.2926 25.5933C11.2376 27.6445 10.0751 30.352 10.0001 33.2432C9.99909 33.2833 10.0061 33.3231 10.0207 33.3603C10.0354 33.3976 10.0573 33.4316 10.0853 33.4602C10.1132 33.4889 10.1466 33.5117 10.1835 33.5272C10.2204 33.5427 10.2601 33.5507 10.3001 33.5507H12.4038C12.5651 33.5507 12.7001 33.4232 12.7038 33.262C12.7751 31.087 13.6563 29.0508 15.2051 27.5058C16.3076 26.4033 17.6575 25.6383 19.1313 25.267C19.2775 25.2295 19.375 25.0908 19.3563 24.9408Z" fill="#1A1A1A"/>
</svg>
