<svg width="16" height="17" viewBox="0 0 16 17" fill="none" xmlns="http://www.w3.org/2000/svg">
<path d="M4.00045 0.223947C4.91646 0.891516 5.6297 1.80271 6.23877 2.67464L6.59299 3.19074L6.92718 3.6836C7.09434 3.92782 7.16581 4.22499 7.12797 4.5185C7.09014 4.81202 6.94564 5.08135 6.72202 5.27519L5.15848 6.43642C5.08294 6.49097 5.02977 6.57108 5.00884 6.66188C4.98791 6.75267 5.00064 6.84798 5.04468 6.93009C5.3989 7.57361 6.0288 8.53209 6.75007 9.25336C7.47213 9.97462 8.47549 10.6462 9.16389 11.0405C9.25021 11.0889 9.3518 11.1025 9.44779 11.0783C9.54379 11.0542 9.62688 10.9942 9.68 10.9107L10.6978 9.36154C10.8849 9.11299 11.1609 8.94647 11.4681 8.89688C11.7752 8.84728 12.0896 8.91845 12.3455 9.09548L12.8768 9.46332C13.8697 10.1525 14.9364 10.9355 15.7522 11.9797C15.8816 12.1463 15.9639 12.3445 15.9906 12.5537C16.0172 12.7629 15.9872 12.9754 15.9037 13.169C15.2329 14.7342 13.5355 16.0669 11.7701 16.002L11.5296 15.9883L11.3429 15.9723L11.1361 15.9483L10.911 15.9178L10.6665 15.8778C10.6237 15.87 10.581 15.862 10.5383 15.8537L10.269 15.796C10.2219 15.7857 10.1749 15.775 10.128 15.764L9.83467 15.6886L9.52613 15.6005L9.20396 15.4963C7.72457 14.9946 5.84689 14.0089 3.92031 12.0823C1.99454 10.1565 1.00882 8.27885 0.507137 6.79946L0.402954 6.4773L0.3148 6.16876L0.239468 5.87544L0.176959 5.59816C0.158904 5.51131 0.142073 5.42422 0.12647 5.3369L0.0864002 5.09247L0.054344 4.86728L0.0311034 4.66051L0.0150753 4.47379L0.00225289 4.23337C-0.0626608 2.47349 1.2845 0.764093 2.84243 0.0965242C3.02993 0.015556 3.23527 -0.015271 3.43829 0.00706805C3.64131 0.0294072 3.83503 0.104145 4.00045 0.223947ZM10.5199 3.10499L10.6128 3.11541C11.1962 3.21831 11.732 3.50324 12.1434 3.92938C12.5549 4.35551 12.8209 4.90097 12.9032 5.48756C12.9326 5.69046 12.8831 5.8969 12.7649 6.06441C12.6467 6.23193 12.4688 6.34777 12.2678 6.38812C12.0668 6.42846 11.858 6.39024 11.6843 6.28131C11.5106 6.17238 11.3853 6.00103 11.3341 5.80251L11.3157 5.71035C11.2834 5.48043 11.1853 5.26476 11.0331 5.08941C10.8809 4.91406 10.6812 4.78653 10.4582 4.72222L10.3339 4.69417C10.1327 4.65851 9.9527 4.54731 9.83074 4.38331C9.70878 4.21932 9.65408 4.01493 9.67783 3.81194C9.70158 3.60896 9.80198 3.42271 9.9585 3.2913C10.115 3.15989 10.3158 3.09324 10.5199 3.10499ZM10.5263 0.668726C11.8015 0.668726 13.0246 1.17533 13.9263 2.07708C14.8281 2.97883 15.3347 4.20187 15.3347 5.47714C15.3345 5.68141 15.2563 5.87787 15.116 6.0264C14.9758 6.17493 14.7842 6.26431 14.5803 6.27628C14.3763 6.28825 14.1756 6.22191 14.0189 6.09081C13.8623 5.95971 13.7616 5.77374 13.7375 5.57091L13.7319 5.47714C13.7322 4.66326 13.4227 3.87976 12.8664 3.28573C12.31 2.6917 11.5484 2.33167 10.7362 2.27874L10.5263 2.27153C10.3137 2.27153 10.1099 2.1871 9.9596 2.03681C9.80931 1.88651 9.72487 1.68267 9.72487 1.47013C9.72487 1.25758 9.80931 1.05374 9.9596 0.903452C10.1099 0.753159 10.3137 0.668726 10.5263 0.668726Z" fill="#E1E1E1"/>
</svg>
