<svg width="47" height="36" viewBox="0 0 47 36" fill="none" xmlns="http://www.w3.org/2000/svg">
<path fill-rule="evenodd" clip-rule="evenodd" d="M1.15719 33.1376C1.22513 33.2787 1.70848 33.9618 2.35889 34.4938C4.69321 36.403 8.3083 36.5532 11.3036 34.6225C13.576 33.1852 14.9807 30.8898 15.2906 28.5515C15.5178 27.7578 16.1582 25.9773 17.5009 25.2479C17.9401 24.9991 20.6365 23.5683 24.2105 21.6719L24.5865 21.4723C29.3377 23.0383 41.1952 26.9641 42.352 27.5004C43.7154 28.1225 47 26.3849 47 26.3849C47 26.3849 38.8816 22.0944 31.1556 17.9971C38.8816 13.8997 47 9.60928 47 9.60928C47 9.60928 43.7154 7.87165 42.352 8.49376C41.1952 9.03007 29.3377 12.9558 24.5865 14.5218L24.21 14.3221C20.6363 12.4257 17.9401 10.995 17.5009 10.7462C16.1582 9.99541 15.5178 8.23634 15.2906 7.44261C14.9807 5.10433 13.576 2.83039 11.3036 1.37165C7.56462 -1.00954 2.91665 -0.215809 0.912859 3.17363C-1.09093 6.56307 0.313791 11.2396 4.05282 13.6208C6.59371 15.2297 9.54774 15.3799 11.7994 14.2644L11.8201 14.3073C13.9478 13.1703 15.745 13.9855 15.745 13.9855L20.9507 16.7528L21.4672 17.9971L20.9507 19.2413L15.745 22.0086C15.745 22.0086 13.9478 22.8453 11.8201 21.6868L11.7994 21.7297C9.52709 20.5928 6.57305 20.7429 4.05282 22.3733C0.892203 24.3898 -0.595144 28.0367 0.231161 31.1687C0.448481 31.9924 1.08924 32.9964 1.15719 33.1376ZM3.16455 4.58947C1.8218 6.8634 2.77205 9.97396 5.25096 11.5614C7.72987 13.1489 10.8285 12.6126 12.1713 10.3601C13.514 8.08617 12.5638 4.97561 10.0848 3.38815C7.60593 1.80069 4.50729 2.33699 3.16455 4.58947ZM25.9292 15.3799C24.7724 15.3799 23.8428 16.3453 23.8428 17.5466C23.8428 18.7264 24.7724 19.7132 25.9086 19.7132C27.0654 19.7132 27.995 18.7479 27.995 17.5466C27.995 16.9245 27.7471 16.3667 27.3546 15.9806C27.0654 15.7017 26.7142 15.5086 26.3011 15.4228C26.1771 15.4014 26.0532 15.3799 25.9292 15.3799ZM12.1713 25.5911C10.8492 23.3387 7.72987 22.8024 5.25096 24.3898C2.75139 25.9773 1.8218 29.1093 3.16455 31.3618C4.48663 33.6142 7.60593 34.1505 10.0848 32.5631C12.5638 30.9542 13.514 27.8436 12.1713 25.5911Z" fill="#F4B22F"/>
</svg>
