<svg width="18" height="18" viewBox="0 0 18 18" fill="none" xmlns="http://www.w3.org/2000/svg">
<path d="M9 -0.000976562C4.02975 -0.000976562 0 4.02877 0 8.99902C0 10.6874 0.474256 12.2616 1.2832 13.6118L0.0805664 17.999L4.56152 16.8228C5.87202 17.5678 7.38487 17.999 9 17.999C13.9703 17.999 18 13.9693 18 8.99902C18 4.02877 13.9703 -0.000976562 9 -0.000976562ZM5.91943 4.80078C6.06568 4.80078 6.21595 4.79989 6.3457 4.80664C6.5062 4.81039 6.68089 4.82214 6.84814 5.19189C7.04689 5.63139 7.47966 6.73395 7.53516 6.8457C7.59066 6.95745 7.62998 7.0891 7.55273 7.23535C7.47923 7.38535 7.44101 7.47614 7.33301 7.60889C7.22126 7.73789 7.09881 7.89811 6.99756 7.99561C6.88581 8.10736 6.77041 8.22989 6.89941 8.45264C7.02841 8.67539 7.47642 9.40562 8.13867 9.99512C8.98992 10.7556 9.70814 10.9893 9.93164 11.1011C10.1551 11.2128 10.2846 11.1954 10.4136 11.0454C10.5463 10.8992 10.9711 10.3973 11.1211 10.1738C11.2673 9.95033 11.4166 9.989 11.6191 10.0625C11.8246 10.136 12.9205 10.6758 13.144 10.7876C13.3675 10.8993 13.5141 10.9547 13.5703 11.0454C13.6281 11.1392 13.6281 11.5855 13.4429 12.106C13.2576 12.6257 12.3479 13.1283 11.9399 13.1636C11.5282 13.2018 11.1439 13.3486 9.26367 12.6084C6.99567 11.7151 5.56536 9.39219 5.45361 9.24219C5.34186 9.09594 4.54541 8.03445 4.54541 6.93945C4.54541 5.8407 5.12149 5.3026 5.32324 5.0791C5.52874 4.8556 5.76943 4.80078 5.91943 4.80078Z" fill="#CCCCCC"/>
</svg>
